<?xml version="1.0" encoding="UTF-8"?>
<svg xmlns="http://www.w3.org/2000/svg" version="1.1" viewBox="0 0 192 192">
  <path style="fill:#D7E361;stroke:none" d="m 32,20 128,0 a 12 12 0 0 1 12,12  l 0,128 a 12,12 0 0 1 -12,12 l -128,0 a 12,12 0 0 1 -12,-12 l 0,-128 a 12,12 0 0 1 12,-12 z"/>  
  <defs>
    <linearGradient id="grad1" x1="0%" y1="0%" x2="0%" y2="100%">
      <stop offset="0%" style="stop-color:rgb(53,186,246);stop-opacity:0.75" />
      <stop offset="100%" style="stop-color:rgb(255,255,255);stop-opacity:0.75" />
    </linearGradient>
    <filter id="f3" x="0" y="0" width="200%" height="200%">
      <feOffset result="offOut" in="SourceAlpha" dx="3" dy="3" />
      <feGaussianBlur result="blurOut" in="offOut" stdDeviation="3" />
      <feBlend in="SourceGraphic" in2="blurOut" mode="normal" />
    </filter>
  </defs>
  <g transform="skewY(15)">
    <path style="fill:url(#grad1);stroke:none;filter:url(#f3);" d="m 80,12 68,0 a 12 12 0 0 1 12,12 l 0,80 a 12,12 0 0 1 -12,12 l -68,0 a 12,12 0 0 1 -12,-12 l 0,-80 a 12,12 0 0 1 12,-12 z"/> 
  
  <!--person-->
  <path style="fill:#8097A2;stroke:none;opacity:0.7;" d="m 112,80 a 18,18 1 1 1 0.1,0 z m 35.9,36 -72,0 0,-9 a 12,12 0 0 1 8,-10 a 90,90 0 0 1 56,0 a 12,12 0 0 1 8,10 z"/>
  <path style="fill:#8097A2;stroke:none;filter:url(#f3);" d="m 68,92 a 18,18 1 1 1 0.1,0 z m 35.9,36 -72,0 0,-9 a 12,12 0 0 1 8,-10 a 90,90 0 0 1 56,0 a 12,12 0 0 1 8,10 z"/>
  
  </g>
</svg>
