<?xml version="1.0" encoding="UTF-8"?>
<svg xmlns="http://www.w3.org/2000/svg" version="1.1" viewBox="0 0 192 192">
  <path style="fill:#EDEDED;stroke:#919191;stroke-width:6;" d="m 22,30 148,0 a 12 12 0 0 1 12,12  l 0,108 a 12,12 0 0 1 -12,12 l -148,0 a 12,12 0 0 1 -12,-12 l 0,-108 a 12,12 0 0 1 12,-12 z"/>
  <path style="fill:none;stroke:#919191;stroke-width:6;" d="m 96,62 64,0 m -64,16 64,0 m -64,16 64,0 m -64,16 64,0 m -64,16 64,0" />
  <path style="fill:#263238;stroke:none;" d="m 52,96 a 18,18 1 1 1 0.1,0 z m 35.9,36 -72,0 0,-9 a 12,12 0 0 1 8,-10 a 90,90 0 0 1 56,0 a 12,12 0 0 1 8,10 z"/>
</svg>
