<?xml version="1.0" encoding="UTF-8"?>
<svg xmlns="http://www.w3.org/2000/svg" version="1.1" viewBox="0 0 192 192">
  <path style="fill:#545454;" d="m 42,10 108,0 a 12 12 0 0 1 12,12  l 0,148 a 12,12 0 0 1 -12,12 l -108,0 a 12,12 0 0 1 -12,-12 l 0,-148 a 12,12 0 0 1 12,-12 z m 10,10 a 12 12 0 0 0 -12,12  l 0,128 a 12,12 0 0 0 12,12 l 88,0 a 12,12 0 0 0 12,-12 l 0,-128 a 12,12 0 0 0 -12,-12 z"/>
  <path style="stroke:#545454;stroke-width:6;fill:none" d="m 58,48 76,0 m -76,24 76,0 m -76,24 76,0 m -50,-88 20,0"/>
</svg>
